<svg xmlns="http://www.w3.org/2000/svg" viewBox="0 0 24 24" class="_98073da9 a8095c74"><g fill="none"><g data-name="Icon awesome-bath"><path d="M19.25 12H6.5V7.5a1 1 0 0 1 1.84-.54 2.12 2.12 0 0 0 .22 2.6.38.38 0 0 0 0 .5l.37.37a.38.38 0 0 0 .53 0l2.97-2.98a.38.38 0 0 0 0-.52l-.36-.36a.38.38 0 0 0-.5-.01 2.12 2.12 0 0 0-2.02-.48A2.5 2.5 0 0 0 5 7.5V12h-.25a.75.75 0 0 0-.75.75v.5a.75.75 0 0 0 .75.75H5v1a3 3 0 0 0 1 2.24v1a.75.75 0 0 0 .75.76h.5a.75.75 0 0 0 .75-.75V18h8v.25a.75.75 0 0 0 .75.75h.5a.75.75 0 0 0 .75-.75v-1.01A3 3 0 0 0 19 15v-1h.25a.75.75 0 0 0 .75-.75v-.5a.75.75 0 0 0-.75-.75z"></path><path fill="#000" d="M7 14v1c0 .4.2.63.33.75l.29.25h8.76l.3-.25A1 1 0 0 0 17 15v-1H7m.5-9c.85 0 1.6.43 2.05 1.08a2.12 2.12 0 0 1 2 .48.37.37 0 0 1 .52 0l.36.37c.14.14.14.38 0 .53l-2.97 2.97a.38.38 0 0 1-.53 0l-.36-.36a.37.37 0 0 1 0-.5 2.12 2.12 0 0 1-.23-2.6 1 1 0 0 0-1.84.54v4.5h12.75c.4 0 .75.34.75.75v.5c0 .41-.34.75-.75.75H19v1a3 3 0 0 1-1 2.24v1c0 .42-.34.76-.75.76h-.5a.75.75 0 0 1-.75-.75v-.25H8v.25c0 .41-.34.75-.75.75h-.5a.75.75 0 0 1-.75-.76v-1.01A3 3 0 0 1 5 15v-1h-.25a.75.75 0 0 1-.75-.75v-.5c0-.4.34-.75.75-.75H5V7.5A2.5 2.5 0 0 1 7.5 5z"></path></g><path d="M0 0h24v24H0z"></path></g></svg>