<svg xmlns="http://www.w3.org/2000/svg" viewBox="0 0 24 24" class="_98073da9 a8095c74"><g fill="none"><path d="M0 0h24v24H0z"></path><g data-name="Icon awesome-bed"><path d="M8.4 11.8a2 2 0 1 0-2-2 2 2 0 0 0 2 2zm8.8-3.2h-5.6a.4.4 0 0 0-.4.4v3.6H5.6V7.4a.4.4 0 0 0-.4-.4h-.8a.4.4 0 0 0-.4.4v8.8a.4.4 0 0 0 .4.4h.8a.4.4 0 0 0 .4-.4V15h12.8v1.2a.4.4 0 0 0 .4.4h.8a.4.4 0 0 0 .4-.4v-4.8a2.8 2.8 0 0 0-2.8-2.8z"></path><path fill="#000" d="M13.2 10.6V13H18v-1.6a.8.8 0 0 0-.8-.8h-4M4.4 7h.8c.22 0 .4.18.4.4v5.2h5.6V9c0-.22.18-.4.4-.4h5.6a2.8 2.8 0 0 1 2.8 2.8v4.8a.4.4 0 0 1-.4.4h-.8a.4.4 0 0 1-.4-.4V15H5.6v1.2a.4.4 0 0 1-.4.4h-.8a.4.4 0 0 1-.4-.4V7.4c0-.22.18-.4.4-.4zm4 .8a2 2 0 1 1 0 4 2 2 0 0 1 0-4z"></path></g></g></svg>